<svg width="114" height="27" viewBox="0 0 114 27" fill="none" xmlns="http://www.w3.org/2000/svg">
<path d="M92.9071 10.5888C92.9071 4.74076 97.5449 0 103.266 0C108.987 0 113.625 4.74076 113.625 10.5888C113.625 13.5128 112.466 16.16 110.591 18.0762C109.953 18.7282 109.232 19.2956 108.446 19.7604C107.671 20.2188 106.833 20.5775 105.948 20.8193L104.607 15.704C106.817 15.1001 108.446 13.0388 108.446 10.5888C108.446 7.66476 106.127 5.29439 103.266 5.29439C100.405 5.29439 98.0865 7.66476 98.0865 10.5888C98.0865 13.0388 99.7146 15.1001 101.925 15.704L100.584 20.8193C99.6991 20.5775 98.8607 20.2188 98.0857 19.7604C97.2997 19.2956 96.579 18.7282 95.9411 18.0762C94.0665 16.16 92.9071 13.5128 92.9071 10.5888Z" fill="#2A2C37"/>
<path d="M103.266 21.5987C102.284 21.5987 101.367 21.3139 100.584 20.8193L99.0577 26.0714C100.344 26.6683 101.768 27 103.266 27C104.764 27 106.188 26.6683 107.474 26.0714L105.948 20.8193C105.166 21.3139 104.248 21.5987 103.266 21.5987Z" fill="#2A2C37"/>
<path d="M0 20.4798V0.339445H5.63451V20.4798H0Z" fill="#2A2C37"/>
<path d="M58.8886 20.8193C57.3485 20.8193 55.9117 20.5647 54.5782 20.0555C53.2635 19.5275 52.1084 18.792 51.113 17.8491C50.1175 16.9062 49.3381 15.803 48.7747 14.5395C48.23 13.2572 47.9576 11.8711 47.9576 10.3814C47.9576 8.87271 48.23 7.48664 48.7747 6.22315C49.3381 4.95966 50.1082 3.8659 51.0848 2.94185C52.0802 2.01781 53.2353 1.3012 54.55 0.792037C55.8647 0.264012 57.2921 0 58.8323 0C60.3911 0 61.8186 0.245155 63.1145 0.735464C64.4104 1.22577 65.5373 1.90466 66.4952 2.77213L62.7482 6.5626C62.2975 6.07229 61.7434 5.6857 61.0861 5.40283C60.4475 5.11996 59.6962 4.97852 58.8323 4.97852C58.081 4.97852 57.3861 5.1011 56.7475 5.34625C56.1277 5.59141 55.5924 5.94971 55.1417 6.42116C54.6909 6.89261 54.334 7.46778 54.0711 8.14667C53.8269 8.8067 53.7048 9.5516 53.7048 10.3814C53.7048 11.23 53.8269 11.9937 54.0711 12.6726C54.334 13.3326 54.6909 13.8984 55.1417 14.3698C55.5924 14.8413 56.1277 15.209 56.7475 15.473C57.3861 15.7182 58.081 15.8408 58.8323 15.8408C59.6774 15.8408 60.4287 15.7087 61.0861 15.4447C61.7622 15.1807 62.3444 14.7941 62.8328 14.285L66.6079 18.0754C65.6125 18.9429 64.4949 19.6218 63.2554 20.1121C62.0158 20.5835 60.5602 20.8193 58.8886 20.8193Z" fill="#2A2C37"/>
<path d="M84.6828 20.4798V0.339445H90.3173V20.4798H84.6828Z" fill="#2A2C37"/>
<path d="M8.969 20.4798V0.339445H12.9132L21.3649 11.0036V0.339445H26.9995V20.4798H22.7736L14.6035 10.1712V20.4798H8.969Z" fill="#2A2C37"/>
<path fill-rule="evenodd" clip-rule="evenodd" d="M39.1929 0.339445C40.5827 0.339445 41.8036 0.594028 42.8553 1.10319C43.9071 1.61236 44.7335 2.31954 45.3345 3.22473C45.9355 4.12991 46.236 5.18596 46.236 6.39288C46.236 7.59979 45.9261 8.65584 45.3063 9.56103C44.7053 10.4662 43.8601 11.1734 42.7708 11.6826C42.4219 11.8456 42.0527 11.9826 41.6634 12.0935L47.532 20.4798H41.1368L35.953 12.4463V20.4798H30.3185V0.339445H39.1929ZM40.0381 7.97695C39.6437 8.35411 39.0614 8.54269 38.2914 8.54269H35.953V4.44107L38.2914 4.41278C39.0614 4.41278 39.6437 4.60136 40.0381 4.97852C40.4513 5.35568 40.6579 5.85542 40.6579 6.47774C40.6579 7.10005 40.4513 7.59979 40.0381 7.97695Z" fill="#2A2C37"/>
<path d="M68.5606 20.4798V0.339445H74.1951V15.671H82.5342V20.4798H68.5606Z" fill="#2A2C37"/>
</svg>
